# xmcd
#
# Track frame offsets:
#	150
#	16388
#	27226
#	39526
#	49981
#	61681
#	73261
#	82539
#	94952
#	104800
#	117820
#	128973
#
# Disc length: 1873 seconds
#
# Revision: 1
# Processed by: cddbd v1.5.2PL0 Copyright (c) Steve Scherf et al.
# Submitted via: audiograbber 1.83.01
#
DISCID=9f074f0c
DTITLE=Patsy Cline - A Portrait Of
DYEAR=1964
DGENRE=Country
TTITLE0=Faded Love
TTITLE1=I'll Sail My Ship Alone
TTITLE2=When You Need A Laugh
TTITLE3=Carzy Arms
TTITLE4=Always
TTITLE5=When I Get Thru With You ( You'll Love Me Too )
TTITLE6=Blue Moon Of Kentucky
TTITLE7=Someday You'll Wamt Me To Want You
TTITLE8=Who Can I Count On
TTITLE9=You Took Him Off My Hands
TTITLE10=Your Kinda Love
TTITLE11=Does Your Heart Beat For Me
EXTD=
EXTT0=
EXTT1=
EXTT2=
EXTT3=
EXTT4=
EXTT5=
EXTT6=
EXTT7=
EXTT8=
EXTT9=
EXTT10=
EXTT11=
PLAYORDER=
